<?xml version="1.0" encoding="utf-8"?>
<!-- Generator: Adobe Illustrator 24.0.1, SVG Export Plug-In . SVG Version: 6.00 Build 0)  -->
<svg version="1.1" id="Layer_1" xmlns="http://www.w3.org/2000/svg" xmlns:xlink="http://www.w3.org/1999/xlink" x="0px" y="0px"
	 viewBox="0 0 886 886" style="enable-background:new 0 0 886 886;" xml:space="preserve">
<style type="text/css">
	.st0{fill:url(#SVGID_1_);}
	.st1{fill:url(#SVGID_2_);}
	.st2{fill:#9D4C11;}
	.st3{fill:#E88D3D;}
	.st4{fill:#F6AE55;}
	.st5{fill:#62330F;}
	.st6{fill:#5E2F0F;}
	.st7{fill:#FFFFFD;}
	.st8{fill:#5D300E;}
	.st9{fill:#FFD57C;}
	.st10{fill:#FED67B;}
</style>
<radialGradient id="SVGID_1_" cx="728.5948" cy="-153.0366" r="503" gradientTransform="matrix(1 0 0 1 0 336)" gradientUnits="userSpaceOnUse">
	<stop  offset="0" style="stop-color:#F6AE55;stop-opacity:0.7"/>
	<stop  offset="0.3399" style="stop-color:#F6AE59;stop-opacity:0.513"/>
	<stop  offset="0.6623" style="stop-color:#F4AC64;stop-opacity:0.3357"/>
	<stop  offset="0.9767" style="stop-color:#F2AA77;stop-opacity:0.1628"/>
	<stop  offset="1" style="stop-color:#F2AA79;stop-opacity:0.15"/>
</radialGradient>
<circle class="st0" cx="728.595" cy="182.963" r="503"/>
<radialGradient id="SVGID_2_" cx="741.3523" cy="-179.791" r="334.766" gradientTransform="matrix(1 0 0 1 0 336)" gradientUnits="userSpaceOnUse">
	<stop  offset="0" style="stop-color:#F6AE55;stop-opacity:0.7"/>
	<stop  offset="0.3399" style="stop-color:#F6AE59;stop-opacity:0.513"/>
	<stop  offset="0.6623" style="stop-color:#F4AC64;stop-opacity:0.3357"/>
	<stop  offset="0.9767" style="stop-color:#F2AA77;stop-opacity:0.1628"/>
	<stop  offset="1" style="stop-color:#F2AA79;stop-opacity:0.15"/>
</radialGradient>
<circle class="st1" cx="741.352" cy="156.209" r="334.766"/>
<path id="outside" class="st2" d="M883.515,196.103c0,5.912-6.68,11.457-7.209,17.231c-0.538,5.877-1.604,11.316-2.665,17.026
	c-1.076,5.793-0.03,11.82-1.619,17.416c-1.607,5.66-4.656,10.628-6.761,16.06c-2.124,5.479-4.211,10.711-6.815,15.93
	c-2.62,5.252-2.349,12.051-5.427,17.012c-3.091,4.982-10.155,7.116-13.68,11.777c-3.534,4.672-4.614,11.183-8.556,15.505
	c-3.945,4.325-5.516,11.275-9.841,15.219c-4.321,3.942-11.349,4.918-16.022,8.451c-4.661,3.525-10.889,4.583-15.871,7.675
	c-4.961,3.078-10.149,5.233-15.4,7.853c-5.219,2.604-10.085,5.385-15.563,7.509c-5.431,2.105-9.063,9.799-14.722,11.406
	c-5.595,1.589-11.742,2.254-17.535,3.33c-5.71,1.061-11.845,0.885-17.722,1.423c-5.774,0.528-11.771-2.732-17.683-2.732
	s-11.728,1.287-17.502,0.759c-5.877-0.538-11.232-3.56-16.942-4.62c-5.793-1.076-12.108,0.637-17.704-0.952
	c-5.66-1.607-11.769-2.163-17.2-4.268c-5.478-2.124-9.087-8.395-14.306-10.999c-5.252-2.62-13.006-0.807-17.967-3.885
	c-4.982-3.091-8.987-7.956-13.648-11.481c-4.672-3.534-7.391-9.409-11.712-13.35c-4.325-3.945-8.471-7.894-12.416-12.219
	c-3.942-4.321-7.244-9.001-10.778-13.674c-3.525-4.661-10.758-6.861-13.849-11.843c-3.078-4.961-2.236-12.218-4.856-17.47
	c-2.604-5.219-5.106-10.385-7.23-15.863c-2.105-5.431-7.18-9.956-8.788-15.616c-1.589-5.595-3.331-11.427-4.407-17.22
	c-1.061-5.71-2.307-11.706-2.845-17.583c-0.528-5.774,1.482-11.893,1.482-17.805c0-5.912,3.223-11.551,3.751-17.325
	c0.538-5.877,1.335-11.463,2.396-17.173c1.076-5.793-0.762-12.173,0.827-17.768c1.607-5.66,5.536-10.504,7.642-15.935
	c2.124-5.479,0.295-12.799,2.899-18.018c2.62-5.252,11.436-7.036,14.514-11.998c3.091-4.982,2.604-12.289,6.13-16.95
	c3.534-4.672,7.262-9.328,11.204-13.649c3.945-4.325,6.706-10.144,11.031-14.089c4.321-3.942,10.279-6.278,14.951-9.811
	c4.661-3.525,10.766-5.021,15.748-8.112c4.961-3.078,9.726-6.452,14.978-9.072c5.219-2.604,10.925-4.007,16.403-6.131
	c5.431-2.105,10.456-5.39,16.116-6.998c5.595-1.589,11.611-1.352,17.404-2.429c5.71-1.061,11.046-5.552,16.924-6.09
	c5.774-0.528,11.838-0.119,17.75-0.119s11.837,1.101,17.611,1.629c5.877,0.538,11.326,3.656,17.036,4.717
	c5.793,1.076,12.714-2.393,18.31-0.804c5.66,1.607,11.036,4.813,16.468,6.919c5.479,2.124,8.775,9.066,13.993,11.669
	c5.252,2.62,12.303,1.847,17.264,4.926c4.982,3.091,8.225,8.691,12.886,12.216c4.672,3.534,10.85,5.232,15.172,9.173
	c4.325,3.945,8.484,8.206,12.429,12.531c3.942,4.321,8.285,8.49,11.819,13.162c3.525,4.661,6.044,10.168,9.135,15.15
	c3.078,4.961,8.438,8.893,11.058,14.144c2.604,5.219,2.282,11.958,4.406,17.437c2.105,5.431,6.445,10.318,8.052,15.978
	c1.589,5.595,0.605,12.007,1.681,17.799c1.061,5.71-2.421,11.952-1.883,17.829C876.386,184.687,883.515,190.191,883.515,196.103z"/>
<path id="second_inner" class="st3" d="M874.403,196.081c0,5.632-6.365,10.915-6.868,16.416c-0.512,5.599-1.528,10.781-2.539,16.221
	c-1.025,5.519-0.029,11.261-1.543,16.592c-1.531,5.392-4.436,10.126-6.442,15.3c-2.023,5.219-4.012,10.204-6.493,15.176
	c-2.496,5.003-2.238,11.481-5.171,16.208c-2.945,4.747-9.674,6.78-13.033,11.22c-3.367,4.451-4.396,10.654-8.151,14.771
	c-3.758,4.12-5.256,10.741-9.376,14.5c-4.117,3.755-10.813,4.685-15.264,8.052c-4.441,3.358-10.374,4.367-15.121,7.312
	c-4.726,2.933-9.669,4.986-14.672,7.482c-4.972,2.48-9.608,5.131-14.827,7.154c-5.174,2.006-8.634,9.335-14.026,10.866
	c-5.331,1.514-11.187,2.148-16.706,3.173c-5.44,1.011-11.285,0.843-16.884,1.356c-5.501,0.503-11.215-2.603-16.847-2.603
	c-5.632,0-11.174,1.226-16.675,0.723c-5.599-0.512-10.701-3.391-16.141-4.402c-5.519-1.025-11.536,0.607-16.867-0.907
	c-5.392-1.531-11.212-2.06-16.387-4.066c-5.219-2.023-8.657-7.998-13.629-10.479c-5.003-2.496-12.391-0.769-17.117-3.702
	c-4.747-2.945-8.562-7.579-13.002-10.938c-4.451-3.367-7.041-8.964-11.158-12.719c-4.12-3.758-8.07-7.521-11.829-11.641
	c-3.755-4.117-6.901-8.576-10.268-13.027c-3.358-4.441-10.249-6.536-13.194-11.283c-2.933-4.726-2.13-11.64-4.626-16.644
	c-2.48-4.972-4.865-9.894-6.888-15.113c-2.006-5.174-6.841-9.485-8.372-14.877c-1.514-5.331-3.173-10.887-4.199-16.406
	c-1.011-5.44-2.198-11.152-2.71-16.752c-0.503-5.501,1.411-11.33,1.411-16.963c0-5.632,3.071-11.005,3.574-16.506
	c0.512-5.599,1.272-10.921,2.283-16.361c1.025-5.519-0.726-11.597,0.788-16.928c1.531-5.392,5.274-10.007,7.28-15.182
	c2.023-5.219,0.281-12.194,2.762-17.166c2.496-5.003,10.895-6.704,13.828-11.43c2.945-4.747,2.481-11.708,5.84-16.148
	c3.367-4.451,6.919-8.887,10.674-13.004c3.758-4.12,6.389-9.664,10.509-13.422c4.117-3.755,9.793-5.981,14.244-9.347
	c4.441-3.358,10.257-4.783,15.003-7.728c4.726-2.933,9.266-6.147,14.269-8.643c4.972-2.48,10.408-3.817,15.627-5.841
	c5.174-2.006,9.962-5.136,15.354-6.667c5.331-1.514,11.062-1.288,16.581-2.314c5.44-1.011,10.524-5.289,16.123-5.802
	c5.501-0.503,11.278-0.113,16.91-0.113c5.632,0,11.277,1.049,16.778,1.552c5.599,0.512,10.79,3.483,16.23,4.494
	c5.519,1.025,12.113-2.28,17.444-0.766c5.392,1.531,10.515,4.586,15.689,6.591c5.219,2.023,8.36,8.637,13.332,11.117
	c5.003,2.496,11.721,1.76,16.448,4.693c4.747,2.945,7.836,8.28,12.277,11.639c4.451,3.367,10.337,4.984,14.454,8.739
	c4.12,3.758,8.083,7.818,11.841,11.938c3.755,4.117,7.893,8.088,11.26,12.54c3.358,4.441,5.758,9.687,8.703,14.434
	c2.933,4.726,8.039,8.472,10.535,13.475c2.48,4.972,2.174,11.393,4.197,16.612c2.006,5.174,6.14,9.83,7.671,15.222
	c1.514,5.331,0.576,11.439,1.601,16.958c1.011,5.44-2.307,11.386-1.794,16.986C867.611,185.205,874.403,190.449,874.403,196.081z"/>
<path class="st4" d="M846.413,195.609c0-12.45-1.59-22.91-4.23-34.56c-2.73-12.02,5.49-27.61,0.26-38.45
	c-5.32-11.03-15.574-20.862-23.134-30.332c-7.6-9.52-21.197-11.769-30.717-19.37c-7.789-6.226-15.783-10.613-24.336-15.175
	c-1.611-0.859-3.525,0.236-3.688,2.055c-0.09,0.998-0.263,1.979-0.525,2.931c-1.32,4.79-4.969,6.828-8.299,5.428
	c-2.28-1.11-3.391-2.348-6.271-3.694c-6.133-2.866-16.203-8.2-21.513-9.85c-10.22-3.19-8.406-5.954-1.106-13.774
	c0.87-0.93,1.83-1.78,2.75-2.66c2-1.77,6.58-2.91,11.46-2.96c-2.65-2.11-8.32,3.67-11.46,2.96c-11.64-2.65-22.313-2.37-34.753-2.37
	s-23.147,4.84-34.797,7.48c-12.02,2.73-24.17,2.16-35.01,7.4c-11.03,5.31-22.351,11.473-31.821,19.033
	c-5.808,4.64-8.566,8.893-10.189,19.242c-0.004,0.027,0.023,0.048,0.047,0.036c9.932-5.072,22.769-5.357,31.263,1.489
	c6.76,5.36,14.13,19.32,12.25,27.98c-1.87,8.65-13.84,12.92-21.77,14.23c-7.31,1.21-25.64,1.6-31.87-6.02
	c-5.939-7.899,11.094-35.219,13.747-42.113c0-0.002,0.001-0.003,0.001-0.005c9.549-38.836-42.878,27.368-47.168,36.267
	c-5.23,10.85-9.71,24.5-12.44,36.52c-2.65,11.64,4.96,25.83,4.96,38.28c0,1.722,0.002,3.442,0.011,5.16
	c0.019,3.469,3.385,5.931,6.696,4.897c5.5-1.717,11.981-1.779,16.242,2.132c5.28,4.84,10.46,9.81,15.37,14.99
	c5.47,5.77,7.28,14.22,4.36,20.08c-2.91,5.86-14.12,10.9-24.24,9.82c-0.021-0.002-0.042-0.005-0.063-0.007
	c-2.055-0.229-3.478,1.987-2.339,3.713c1.657,2.51,3.208,5.054,4.492,7.704c5.32,11.03,9.78,21.64,17.34,31.11
	c5.892,7.38,13.808,11.868,21.508,17.058c0.017,0.011,0.039,0.005,0.047-0.014c0.569-1.368,1.374-2.716,2.405-4.035
	c1.44-1.83,2.94-3.42,4.64-4.42c4.49-2.26,8.7-1.38,12.49,2.06c2.33,2.12,4.29,4.65,6.58,6.83c3.22,3.06,6.37,6.3,9.98,8.85
	c3.8,2.67,6.55,5.58,6.46,10.46c-0.119,2.862-1.927,4.865-4.462,6.155c-0.022,0.011-0.024,0.04-0.003,0.053
	c9.508,6.06,16.942,18.355,27.965,20.861c11.64,2.64,18.66-11.33,31.1-11.33c12.45,0,25.14,8.17,36.78,5.53
	c5.335-1.217,10.981-2.107,16.56-3.174c2.438-0.466,3.548-3.285,2.156-5.341c-2.167-3.2-3.746-6.678-4.376-9.913
	c0-0.002,0-0.003-0.001-0.005c-1.768-20.058,13.271-24.908,26.94-27.467c8.499-1.58,14.649,3.289,21.009,15.378
	c0.001,0.002,0.002,0.003,0.002,0.005c0.175,0.495,0.345,0.998,0.508,1.508c0.86,2.694,4.109,3.749,6.344,2.016
	c0.221-0.171,0.44-0.344,0.657-0.517c9.52-7.6,19.27-17.7,26.87-27.21c7.56-9.47,7.89-24.78,13.21-35.8l0,0
	c0.815-1.674-0.25-3.676-2.099-3.892c-5.784-0.677-9.559-3.781-11.821-5.634c-0.002-0.002-0.004-0.004-0.006-0.006
	c-4.286-5.719-1.383-12.869,1.726-19.448c1.62-3.42,2.46-7.23,3.4-10.92c3.6-14.36,20.173-11.661,28.315-7.013
	c1.248,0.731,3.459,2.672,3.925,2.203C855.199,217.571,846.413,202.799,846.413,195.609z M568.863,163.629
	c-3.26,2.09-10.25,3.17-13.64,1.12c-3.39-2.06-3.46-7.75-2.86-11.3c0.56-3.27,4.79-13.78,8.92-15.31c5.72-1.85,11.99,0.9,14.74,4.99
	C579.773,148.689,574.653,159.989,568.863,163.629z M725.733,119.349c-0.48,4.93-4.53,9.4-11.59,11.8
	c-7.07,2.41-26.44,4.6-32.67-3.5c-8.08-11.42-8.76-21.27-2.12-30.61c9.03-12.7,26.71-14.81,38.63-4.61
	C724.753,98.129,726.553,111.009,725.733,119.349z"/>
<path class="st5" d="M735.752,334.84c-1.493-16.94,12.679-26.494,24.224-28.648c7.177-1.339,14.349-0.571,19.715,9.634
	c2.445,6.92-2.984,15.097-10.05,19.422c-5.161,3.159-10.669,6.053-16.396,7.916C744.944,345.865,737.526,343.94,735.752,334.84z"/>
<path class="st5" d="M817.952,254.036c-4.29-5.72-4.892-11.662-1.78-18.242c1.615-3.414,2.457-7.224,3.401-10.918
	c2.318-9.068,7.729-12.161,16.337-8.449c11.833,5.101,9.976,21.601,2.069,31.136C832.582,254.072,822.439,258.833,817.952,254.036z"
	/>
<path class="st5" d="M592.884,307.218c1.436-1.828,2.934-3.422,4.634-4.415c4.491-2.264,8.705-1.38,12.492,2.06
	c2.333,2.12,4.289,4.651,6.578,6.824c3.228,3.064,6.372,6.304,9.988,8.847c3.796,2.67,6.544,5.588,6.454,10.469
	c-0.227,5.503-6.739,7.849-12.573,8.07c-8.307,0.314-15.687-2.151-22.327-7.043C589.339,325.552,586.218,315.704,592.884,307.218z"
	/>
<path class="st5" d="M531.985,207.458c2.748-4.842,16.321-10.512,23.289-3.904c4.712,4.469,9.331,9.057,13.717,13.844
	c4.88,5.328,6.497,13.132,3.895,18.544s-12.603,10.072-21.643,9.069c-11.64-1.292-18.146-11.575-20.333-20.451
	C529.458,218.669,529.237,212.3,531.985,207.458z"/>
<path class="st5" d="M680.828,121.414c-7.294-9.707-7.909-18.089-1.908-26.033c8.155-10.796,24.121-12.589,34.884-3.918
	c6.113,4.848,7.737,15.803,7.004,22.893c-0.434,4.194-4.091,7.995-10.475,10.038C703.949,126.437,686.461,128.3,680.828,121.414z"/>
<path class="st5" d="M566.266,122.007c-7.294-9.707-5.971-18.682,0.03-26.626c8.155-10.796,26.642-14.784,37.405-6.113
	c6.113,4.848,12.783,17.478,11.087,25.304c-1.696,7.826-12.522,11.694-19.696,12.878
	C588.479,128.542,571.899,128.894,566.266,122.007z"/>
<path class="st5" d="M563.561,138.825c5.722-1.852,9.712,0.214,12.465,4.305c3.742,5.559,2.631,14.86-3.165,18.503
	c-3.256,2.082-10.246,3.17-13.638,1.114c-3.392-2.055-3.459-7.749-2.857-11.299C556.921,148.175,559.428,140.353,563.561,138.825z"
	/>
<path class="st5" d="M745.472,64.444c-2.081-1.017-4.142-2.076-6.246-3.043c-4.652-2.141-9.172-4.73-14.024-6.244
	c-9.336-2.914-11.573-10.165-4.896-17.306c0.795-0.85,1.669-1.627,2.506-2.438c3.007-2.655,12.353-3.755,18.852-1.455
	c8.821,3.122,15.103,14.903,12.619,23.891C753.075,62.223,748.516,65.724,745.472,64.444z"/>
<g id="eyes">
	<circle id="left_outter" class="st6" cx="637.969" cy="195.635" r="47.011"/>
	<circle id="left_middle" class="st7" cx="637.969" cy="195.635" r="39.426"/>
	<circle id="left_inner" class="st5" cx="642.484" cy="195.635" r="25.429"/>
	<circle id="right_outter" class="st6" cx="764.01" cy="195.635" r="45.792"/>
	<circle id="right_middle" class="st7" cx="764.01" cy="195.635" r="39.426"/>
	<circle id="right_inner" class="st5" cx="758.943" cy="195.635" r="25.429"/>
</g>
<path class="st8" d="M736.579,257.678c-6.007-0.272-11.539-12.575-11.974-15.61c-0.391-2.734-2.918-4.643-5.657-4.241
	c-2.733,0.391-4.633,2.924-4.241,5.657c0.333,2.331,1.843,6.58,4.121,10.706c-33.053,17.119-46.843,7.556-54.381,2.316l-0.914-0.633
	c-2.275-1.563-5.389-0.988-6.953,1.287s-0.988,5.389,1.288,6.953l0.87,0.604c5.095,3.541,13.32,9.261,27.117,9.261
	c9.86,0,22.57-2.93,39.005-11.656c3.439,3.336,7.256,5.164,11.266,5.346c0.077,0.003,0.154,0.005,0.23,0.005
	c2.657,0,4.869-2.092,4.991-4.773C741.473,260.141,739.338,257.804,736.579,257.678z"/>
<path class="st9" d="M677.64,24.974c6.774-1.024,26.042,1.916,35.203,5.147c13.074,4.612,10.01,10.698-6.717,10.392
	c-11.778-0.215-19.025-1.158-26.027,0.238c-7.003,1.397-13.003,3.545-15.734,3.827c-2.732,0.282-10.494,2.399-14.362,3.892
	s-26.052,5.612-40.508,12.726c-9.501,4.676-15.42,6.567-36.643,23.478c-27.585,21.98-42.2,58.106-44.563,63.858
	c-2.362,5.752-2.735,6.351-4.696,6.217s-2.008-7.766-0.422-13.298c1.586-5.531,11.967-36.202,36.058-60.456
	c12.175-12.258,29.537-27.238,50.882-37.436C631,33.578,655.767,28.283,677.64,24.974z"/>
<path class="st9" d="M522.07,163.903c1.913-0.409,3.965,1.387,4.242,5.895s1.052,21.998,2.313,24.975s1.035,6.769-2.448,7.289
	c-3.483,0.519-7.643-10.136-8.073-16.995S519.003,164.558,522.07,163.903z"/>
<path class="st9" d="M580.304,178.98c2.348-0.056,0.327,5.702,0,9c-0.202,2.033,0.302,7.834-2.152,8.609
	C574.434,197.762,568.158,179.27,580.304,178.98z"/>
<path class="st9" d="M705.153,134.12c-2.089-2.725,7.382-3.399,11.559-5.852c2.575-1.512,8.064-9.003,11.093-6.773
	C732.393,124.875,715.957,148.216,705.153,134.12z"/>
<path class="st9" d="M787.508,89.946c0.517,3.394-6.094-0.8-9.717-0.797c-2.233,0.002-8.39,3.671-9.703,0.228
	C766.099,84.161,784.834,72.391,787.508,89.946z"/>
<path class="st10" d="M769.846,62.185c-1.3,0.893,1.596,2.408,3.156,4.427c1.56,2.018,2.074,3.347,9.055,6.637
	c6.981,3.291,26.277,14.492,28.334,17.644s2.697,8.005,8.225,10.446s4.714,4.284,7.39,5.611s7.245-0.27,4.266-4.909
	S808.561,81.63,801.438,76.78C794.314,71.931,774.467,59.011,769.846,62.185z"/>
</svg>
